<?xml version="1.0" encoding="utf-8"?>
<!-- Generator: Adobe Illustrator 24.2.1, SVG Export Plug-In . SVG Version: 6.00 Build 0)  -->
<svg version="1.1" id="Layer_1" xmlns="http://www.w3.org/2000/svg" xmlns:xlink="http://www.w3.org/1999/xlink" x="0px" y="0px"
	 viewBox="0 0 89.9 20.4" style="enable-background:new 0 0 89.9 20.4;" xml:space="preserve">
<style type="text/css">
	.st0{fill:#FFFFFF;}
	.st1{fill:#B4CB34;}
</style>
<path class="st0" d="M6.4,8.2h-4V3.3h14.1v4.9h-4v9.6h-6L6.4,8.2L6.4,8.2z"/>
<path class="st0" d="M18,3.3h6c3,0,7.1,0.7,7.1,4.6c0,1.6-0.7,2.7-1.8,3.4l3.3,6.5h-6.3L24,13.1l0,0v4.8h-6V3.3z M24.4,9.7
	c0.9,0,1.4-0.5,1.4-1.1s-0.4-1.1-1.4-1.1H24v2.2H24.4z"/>
<path class="st0" d="M48.3,3.3h6v9.4h4.5v5.2H48.3V3.3z"/>
<path class="st0" d="M59.9,3.3h6v9.4h4.5v5.2H59.9V3.3z"/>
<path class="st0" d="M79.4,3.1c4.5,0,8.1,3.3,8.1,7.5S83.9,18,79.4,18s-8.1-3.3-8.1-7.5S74.8,3.1,79.4,3.1z M79.4,12.9
	c1.2,0,2.2-1,2.2-2.2s-1-2.2-2.2-2.2s-2.2,1-2.2,2.2S78.1,12.9,79.4,12.9z"/>
<g>
	<path class="st1" d="M47.1,9.1c0-0.2,0-0.4-0.1-0.5l-1.4-2.4c-0.1-0.2-0.2-0.3-0.4-0.3s-0.4,0-0.5,0.1l-0.9,0.5
		c-0.6-0.5-1.2-0.9-1.9-1.1v-1c0-0.4-0.3-0.7-0.7-0.7h-2.7c-0.4,0-0.7,0.3-0.7,0.7v1c-0.7,0.3-1.4,0.6-1.9,1.1L35,6
		c-0.2-0.1-0.3-0.1-0.5-0.1s-0.3,0.2-0.4,0.3l-1.4,2.4c-0.1,0.2-0.1,0.3-0.1,0.5s0.2,0.3,0.3,0.4l0.9,0.5c-0.1,0.4-0.1,0.8-0.1,1.1
		c0,0.4,0,0.7,0.1,1.1l-0.9,0.5c-0.2,0.1-0.3,0.2-0.3,0.4s0,0.4,0.1,0.5l1.4,2.4c0.1,0.2,0.2,0.3,0.4,0.3s0.4,0,0.5-0.1l0.9-0.5
		c0.6,0.5,1.2,0.9,1.9,1.1v1c0,0.4,0.3,0.7,0.7,0.7h2.7c0.4,0,0.7-0.3,0.7-0.7v-1c0.7-0.3,1.4-0.6,1.9-1.1l0.9,0.5
		c0.2,0.1,0.3,0.1,0.5,0.1s0.3-0.2,0.4-0.3l1.4-2.4c0.1-0.2,0.1-0.3,0.1-0.5s-0.2-0.3-0.3-0.4l-0.9-0.5c0.1-0.4,0.1-0.8,0.1-1.1
		c0-0.4,0-0.7-0.1-1.1l0.9-0.5C46.9,9.4,47.1,9.3,47.1,9.1z M44.5,9.9c0.1,0.4,0.2,0.9,0.2,1.3c0,0.4-0.1,0.8-0.2,1.3
		c-0.1,0.3,0,0.6,0.3,0.8l0.7,0.4l-0.7,1.2l-0.7-0.4c-0.3-0.2-0.6-0.1-0.8,0.1c-0.6,0.6-1.4,1.1-2.2,1.3c-0.3,0.1-0.5,0.3-0.5,0.7
		v0.9h-1.4v-0.9c0-0.3-0.2-0.6-0.5-0.7c-0.8-0.2-1.6-0.7-2.2-1.3c-0.2-0.2-0.6-0.3-0.8-0.1L35,14.9l-0.7-1.2l0.7-0.4
		c0.3-0.2,0.4-0.5,0.3-0.8c-0.1-0.4-0.2-0.9-0.2-1.3c0-0.4,0.1-0.8,0.2-1.3c0.1-0.3,0-0.6-0.3-0.8l-0.7-0.4L35,7.5l0.7,0.4
		C36,8.1,36.3,8,36.5,7.8c0.6-0.6,1.4-1.1,2.2-1.3c0.3-0.1,0.5-0.3,0.5-0.7V5h1.4v0.9c0,0.3,0.2,0.6,0.5,0.7
		c0.8,0.2,1.6,0.7,2.2,1.3c0.2,0.2,0.6,0.3,0.8,0.1l0.7-0.4l0.7,1.2l-0.7,0.4C44.5,9.3,44.4,9.6,44.5,9.9z"/>
	<path class="st1" d="M39.8,7.7c-1.9,0-3.4,1.5-3.4,3.4s1.5,3.4,3.4,3.4s3.4-1.5,3.4-3.4S41.7,7.7,39.8,7.7z M39.8,13.2
		c-1.1,0-2-0.9-2-2s0.9-2,2-2s2,0.9,2,2S41,13.2,39.8,13.2z"/>
</g>
</svg>
